<?xml version="1.0" encoding="UTF-8" standalone="no"?>
<!DOCTYPE svg PUBLIC "-//W3C//DTD SVG 1.1//EN" "http://www.w3.org/Graphics/SVG/1.1/DTD/svg11.dtd">
<svg width="100%" height="100%" viewBox="0 0 580 580" version="1.1" xmlns="http://www.w3.org/2000/svg" xmlns:xlink="http://www.w3.org/1999/xlink" xml:space="preserve" xmlns:serif="http://www.serif.com/" style="fill-rule:evenodd;clip-rule:evenodd;stroke-linejoin:round;stroke-miterlimit:2;">
    <g transform="matrix(4.16667,0,0,4.16667,496.614,507.237)">
        <path d="M0,8.911L-103.053,8.911L-103.053,2.582C-103.053,1.156 -101.897,0 -100.471,0L-2.582,0C-1.156,0 0,1.156 0,2.582L0,8.911Z" style="fill:rgb(180,130,75);fill-rule:nonzero;"/>
    </g>
    <g transform="matrix(4.16667,0,0,4.16667,78.644,518.659)">
        <path d="M0,3.429L97.573,3.429L97.573,1.975C97.573,0.887 96.686,0 95.596,0L1.977,0C0.887,0 0,0.887 0,1.975L0,3.429ZM100.313,8.91L-2.74,8.91C-4.253,8.91 -5.481,7.682 -5.481,6.169L-5.481,1.975C-5.481,-2.136 -2.136,-5.481 1.977,-5.481L95.596,-5.481C99.708,-5.481 103.053,-2.136 103.053,1.975L103.053,6.169C103.053,7.682 101.826,8.91 100.313,8.91" style="fill:rgb(46,47,49);fill-rule:nonzero;"/>
    </g>
    <g transform="matrix(4.16667,0,0,4.16667,496.614,298.515)">
        <path d="M0,8.911L-103.053,8.911L-103.053,3.607C-103.053,1.615 -101.438,0 -99.445,0L-3.607,0C-1.615,0 0,1.615 0,3.607L0,8.911Z" style="fill:rgb(180,130,75);fill-rule:nonzero;"/>
    </g>
    <g transform="matrix(4.16667,0,0,4.16667,78.7406,309.933)">
        <path d="M0,3.431L97.526,3.431C97.317,1.504 95.681,-0 93.699,-0L3.827,-0C1.845,-0 0.209,1.504 0,3.431M100.29,8.912L-2.764,8.912C-4.276,8.912 -5.504,7.684 -5.504,6.171L-5.504,3.85C-5.504,-1.295 -1.318,-5.481 3.827,-5.481L93.699,-5.481C98.845,-5.481 103.03,-1.295 103.03,3.85L103.03,6.171C103.03,7.684 101.803,8.912 100.29,8.912" style="fill:rgb(46,47,49);fill-rule:nonzero;"/>
    </g>
    <g transform="matrix(4.16667,0,0,4.16667,-647.561,-2372.42)">
        <g opacity="0.15">
            <g transform="matrix(1,0,0,1,269.886,700.028)">
                <path d="M0,-8.911L-12.788,-8.911C-10.184,-8.911 -8.072,-6.8 -8.072,-4.195L-8.072,0L4.716,0L4.716,-4.195C4.716,-6.8 2.605,-8.911 0,-8.911" style="fill:rgb(3,4,4);fill-rule:nonzero;"/>
            </g>
        </g>
    </g>
    <g transform="matrix(4.16667,0,0,4.16667,-647.561,-2372.42)">
        <g opacity="0.15">
            <g transform="matrix(1,0,0,1,268.012,649.935)">
                <path d="M0,-8.911L-12.788,-8.911C-9.149,-8.911 -6.198,-5.961 -6.198,-2.321L-6.198,0L6.59,0L6.59,-2.321C6.59,-5.961 3.64,-8.911 0,-8.911" style="fill:rgb(3,4,4);fill-rule:nonzero;"/>
            </g>
        </g>
    </g>
    <g transform="matrix(-4.16667,0,0,4.16667,1209.61,-361.414)">
        <rect x="176.265" y="167.288" width="93.192" height="41.783" style="fill:rgb(180,130,75);"/>
    </g>
    <g transform="matrix(4.16667,0,0,4.16667,-647.561,-361.418)">
        <path d="M179.006,206.332L266.716,206.332L266.716,170.029L179.006,170.029L179.006,206.332ZM269.457,211.812L176.266,211.812C174.753,211.812 173.526,210.585 173.526,209.072L173.526,167.288C173.526,165.776 174.753,164.548 176.266,164.548L269.457,164.548C270.97,164.548 272.197,165.776 272.197,167.288L272.197,209.072C272.197,210.585 270.97,211.812 269.457,211.812" style="fill:rgb(46,47,49);fill-rule:nonzero;"/>
    </g>
    <g transform="matrix(4.16667,0,0,4.16667,-647.561,-2372.42)">
        <g opacity="0.15">
            <g transform="matrix(1,0,0,1,0,482.641)">
                <rect x="256.669" y="167.288" width="11.469" height="41.783" style="fill:rgb(3,4,4);"/>
            </g>
        </g>
    </g>
    <g transform="matrix(-4.16667,0,0,4.16667,1211.4,-361.41)">
        <rect x="187.555" y="175.751" width="71.041" height="24.856" style="fill:rgb(250,231,197);"/>
    </g>
    <g transform="matrix(4.16667,0,0,4.16667,-647.561,-361.414)">
        <path d="M190.296,197.867L255.856,197.867L255.856,178.492L190.296,178.492L190.296,197.867ZM258.597,203.348L187.556,203.348C186.043,203.348 184.815,202.12 184.815,200.607L184.815,175.751C184.815,174.238 186.043,173.011 187.556,173.011L258.597,173.011C260.11,173.011 261.337,174.238 261.337,175.751L261.337,200.607C261.337,202.12 260.11,203.348 258.597,203.348" style="fill:rgb(46,47,49);fill-rule:nonzero;"/>
    </g>
    <g transform="matrix(4.16667,0,0,4.16667,-647.561,-2372.42)">
        <g opacity="0.15">
            <g transform="matrix(1,0,0,1,0,482.64)">
                <rect x="247.635" y="175.753" width="10.961" height="24.855" style="fill:rgb(3,4,4);"/>
            </g>
        </g>
    </g>
    <g transform="matrix(0,-4.16667,-4.16667,0,281.921,401.488)">
        <path d="M-5.083,-5.083C-7.89,-5.083 -10.166,-2.807 -10.166,0C-10.166,2.807 -7.89,5.083 -5.083,5.083C-2.276,5.083 0,2.807 0,0C0,-2.807 -2.276,-5.083 -5.083,-5.083" style="fill:rgb(251,175,59);fill-rule:nonzero;"/>
    </g>
    <g transform="matrix(4.16667,0,0,4.16667,281.92,432.427)">
        <path d="M0,-4.685C-1.292,-4.685 -2.343,-3.634 -2.343,-2.342C-2.343,-1.051 -1.292,0 0,0C1.292,0 2.343,-1.051 2.343,-2.342C2.343,-3.634 1.292,-4.685 0,-4.685M0,5.481C-4.314,5.481 -7.823,1.971 -7.823,-2.342C-7.823,-6.656 -4.314,-10.166 0,-10.166C4.314,-10.166 7.823,-6.656 7.823,-2.342C7.823,1.971 4.314,5.481 0,5.481" style="fill:rgb(46,47,49);fill-rule:nonzero;"/>
    </g>
    <g transform="matrix(4.16667,0,0,4.16667,281.028,206.312)">
        <path d="M0,21.767C12.021,21.767 21.767,12.022 21.767,0L-21.767,0C-21.767,12.022 -12.021,21.767 0,21.767" style="fill:rgb(251,175,59);fill-rule:nonzero;"/>
    </g>
    <g transform="matrix(4.16667,0,0,4.16667,202.572,285.587)">
        <path d="M0,-16.285C1.333,-7.088 9.268,0 18.829,0C28.39,0 36.326,-7.088 37.659,-16.285L0,-16.285ZM18.829,5.481C5.317,5.481 -5.677,-5.513 -5.677,-19.025C-5.677,-20.538 -4.45,-21.766 -2.937,-21.766L40.595,-21.766C42.108,-21.766 43.336,-20.538 43.336,-19.025C43.336,-5.513 32.342,5.481 18.829,5.481" style="fill:rgb(46,47,49);fill-rule:nonzero;"/>
    </g>
    <g transform="matrix(4.16667,0,0,4.16667,-647.561,-2372.42)">
        <g opacity="0.15">
            <g transform="matrix(-0.924452,-0.381299,-0.381299,0.924452,225.203,639.347)">
                <path d="M1.663,-21.437C-2.072,-12.381 0.754,-2.258 7.94,3.66C5.834,3.463 3.721,2.957 1.663,2.108C-9.449,-2.475 -14.742,-15.201 -10.158,-26.313L1.663,-21.437Z" style="fill:rgb(3,4,4);fill-rule:nonzero;"/>
            </g>
        </g>
    </g>
    <g transform="matrix(4.16667,0,0,4.16667,386.142,167.496)">
        <path d="M0,9.316L-50.455,9.316C-51.857,9.316 -53.004,8.169 -53.004,6.766L-53.004,2.55C-53.004,1.147 -51.857,0 -50.455,0L0,0C1.402,0 2.55,1.147 2.55,2.55L2.55,6.766C2.55,8.169 1.402,9.316 0,9.316" style="fill:rgb(251,175,59);fill-rule:nonzero;"/>
    </g>
    <g transform="matrix(4.16667,0,0,4.16667,184.701,194.897)">
        <path d="M0,-3.836C-1.04,-3.836 -1.918,-2.958 -1.918,-1.918C-1.918,-0.878 -1.04,0 0,0L46.237,0C47.277,0 48.155,-0.878 48.155,-1.918C48.155,-2.958 47.277,-3.836 46.237,-3.836L0,-3.836ZM46.237,5.481L0,5.481C-4.08,5.481 -7.399,2.162 -7.399,-1.918C-7.399,-5.998 -4.08,-9.317 0,-9.317L46.237,-9.317C50.317,-9.317 53.635,-5.998 53.635,-1.918C53.635,2.162 50.317,5.481 46.237,5.481" style="fill:rgb(46,47,49);fill-rule:nonzero;"/>
    </g>
    <g transform="matrix(4.16667,0,0,4.16667,-647.561,-2372.42)">
        <g opacity="0.15">
            <g transform="matrix(1,0,0,1,245.98,618.895)">
                <path d="M0,-9.316L-12.788,-9.316C-10.226,-9.316 -8.13,-7.22 -8.13,-4.658C-8.13,-2.096 -10.226,0 -12.788,0L0,0C2.562,0 4.658,-2.096 4.658,-4.658C4.658,-7.22 2.562,-9.316 0,-9.316" style="fill:rgb(3,4,4);fill-rule:nonzero;"/>
            </g>
        </g>
    </g>
    <g transform="matrix(4.16667,0,0,4.16667,281.028,84.3175)">
        <path d="M0,21.349C-1.513,21.349 -2.74,20.122 -2.74,18.609L-2.74,15.322C-2.74,10.418 1.249,6.429 6.152,6.429L45.313,6.429C47.346,6.429 49,4.775 49,2.741C49,1.228 50.228,0 51.741,0C53.254,0 54.481,1.228 54.481,2.741C54.481,7.797 50.369,11.909 45.313,11.909L6.152,11.909C4.271,11.909 2.74,13.44 2.74,15.322L2.74,18.609C2.74,20.122 1.513,21.349 0,21.349" style="fill:rgb(46,47,49);fill-rule:nonzero;"/>
    </g>
    <g transform="matrix(4.16667,0,0,4.16667,501.837,35.6333)">
        <path d="M0,18.954L-4.341,18.954C-5.785,18.954 -6.966,17.773 -6.966,16.329L-6.966,2.625C-6.966,1.181 -5.785,0 -4.341,0L0,0C1.444,0 2.625,1.181 2.625,2.625L2.625,16.329C2.625,17.773 1.444,18.954 0,18.954" style="fill:rgb(81,58,43);fill-rule:nonzero;"/>
    </g>
    <g transform="matrix(4.16667,0,0,4.16667,492.794,103.191)">
        <path d="M0,-13.473C-1.133,-13.473 -2.055,-12.551 -2.055,-11.418L-2.055,-2.055C-2.055,-0.922 -1.133,0.001 0,0.001C1.113,0.001 2.055,-0.941 2.055,-2.055L2.055,-11.418C2.055,-12.551 1.133,-13.473 0,-13.473M0,5.481C-4.155,5.481 -7.536,2.1 -7.536,-2.055L-7.536,-11.418C-7.536,-15.573 -4.155,-18.954 0,-18.954C4.155,-18.954 7.536,-15.573 7.536,-11.418L7.536,-2.055C7.536,2.1 4.155,5.481 0,5.481" style="fill:rgb(46,47,49);fill-rule:nonzero;"/>
    </g>
</svg>
