<?xml version="1.0" encoding="UTF-8" standalone="no"?>
<!DOCTYPE svg PUBLIC "-//W3C//DTD SVG 1.1//EN" "http://www.w3.org/Graphics/SVG/1.1/DTD/svg11.dtd">
<svg width="100%" height="100%" viewBox="0 0 580 580" version="1.1" xmlns="http://www.w3.org/2000/svg" xmlns:xlink="http://www.w3.org/1999/xlink" xml:space="preserve" xmlns:serif="http://www.serif.com/" style="fill-rule:evenodd;clip-rule:evenodd;stroke-linejoin:round;stroke-miterlimit:2;">
    <g transform="matrix(4.16667,0,0,4.16667,254.039,509.677)">
        <path d="M48.299,-60.21L-48.299,-60.21C-44.803,-36.885 -37.567,-13.673 -23.913,-2.466C-21.954,-0.859 -19.567,0 -17.116,0L17.116,0C19.567,0 21.954,-0.859 23.913,-2.466C37.567,-13.673 44.803,-36.885 48.299,-60.21Z" style="fill:white;fill-rule:nonzero;"/>
    </g>
    <g transform="matrix(4.16667,0,0,4.16667,66.1517,498.255)">
        <path d="M0,-54.728C3.087,-36.04 9.531,-12.831 22.919,-1.844C24.389,-0.638 26.137,0 27.977,0L62.208,0C64.047,0 65.798,-0.638 67.268,-1.844C80.656,-12.833 87.1,-36.04 90.186,-54.728L0,-54.728ZM62.208,5.481L27.977,5.481C24.899,5.481 21.87,4.385 19.443,2.394C3.943,-10.326 -2.903,-36.959 -5.916,-57.063C-6.034,-57.851 -5.804,-58.652 -5.283,-59.257C-4.762,-59.861 -4.004,-60.209 -3.206,-60.209L93.392,-60.209C94.19,-60.209 94.948,-59.861 95.469,-59.257C95.99,-58.652 96.22,-57.851 96.102,-57.063C93.089,-36.96 86.243,-10.328 70.745,2.394C68.317,4.385 65.286,5.481 62.208,5.481" style="fill:rgb(46,47,49);fill-rule:nonzero;"/>
    </g>
    <g transform="matrix(4.16667,0,0,4.16667,-661.205,-713.918)">
        <g opacity="0.15">
            <g transform="matrix(1,0,0,1,253.343,293.663)">
                <path d="M0,-60.21C-3.496,-36.885 -10.732,-13.673 -24.387,-2.466C-26.345,-0.859 -28.732,0 -31.183,0L-16.568,0C-14.117,0 -11.73,-0.859 -9.771,-2.466C3.883,-13.673 11.119,-36.885 14.615,-60.21L0,-60.21Z" style="fill:rgb(3,4,4);fill-rule:nonzero;"/>
            </g>
        </g>
    </g>
    <g transform="matrix(4.16667,0,0,4.16667,463.706,426.569)">
        <path d="M0,-40.264C-0.696,-40.264 -1.376,-40.195 -2.048,-40.097C-2.657,-36.049 -3.386,-32.01 -4.235,-28.033C-3.346,-28.59 -2.329,-28.933 -1.229,-28.933C2.127,-28.933 4.848,-27.126 4.848,-22.305C4.848,-16.374 -2.447,-12.878 -5.803,-12.878C-6.96,-12.878 -7.49,-13.573 -7.698,-14.621C-9.275,-9.541 -11.124,-4.729 -13.263,-0.314C-12.737,-0.13 -12.163,0 -11.471,0C-3.054,0 15.24,-8.767 15.24,-23.643C15.24,-35.733 8.417,-40.264 0,-40.264" style="fill:white;fill-rule:nonzero;"/>
    </g>
    <g transform="matrix(4.16667,0,0,4.16667,437.55,301.128)">
        <path d="M0,19.948C-0.863,22.452 -1.788,24.852 -2.765,27.135C5.268,25.749 18.778,18.178 18.778,6.463C18.778,-2.627 14.681,-7.294 6.601,-7.415C6.284,-5.442 5.939,-3.484 5.572,-1.556C10.703,-1.333 13.866,2.21 13.866,7.801C13.866,15.674 5.02,19.969 0.475,19.969C0.314,19.969 0.155,19.961 0,19.948M-5.194,32.846C-6.114,32.846 -6.997,32.693 -7.895,32.377C-8.631,32.117 -9.222,31.557 -9.518,30.836C-9.816,30.113 -9.791,29.299 -9.45,28.596C-7.436,24.44 -5.615,19.755 -4.037,14.672C-3.666,13.473 -2.526,12.67 -1.274,12.747C-0.207,12.804 0.712,13.474 1.111,14.432C3.659,14.033 8.385,11.487 8.385,7.801C8.385,4.384 6.781,3.913 5.049,3.913C4.53,3.913 4.009,4.076 3.497,4.395C2.567,4.979 1.372,4.948 0.471,4.318C-0.43,3.687 -0.867,2.577 -0.637,1.5C0.184,-2.34 0.908,-6.343 1.52,-10.4C1.7,-11.593 2.639,-12.528 3.834,-12.703C4.746,-12.836 5.524,-12.898 6.278,-12.898C17.538,-12.898 24.258,-5.66 24.258,6.463C24.258,22.829 5.19,32.846 -5.194,32.846" style="fill:rgb(46,47,49);fill-rule:nonzero;"/>
    </g>
    <g transform="matrix(4.16667,0,0,4.16667,-661.205,-713.918)">
        <g opacity="0.15">
            <g transform="matrix(1,0,0,1,269.979,273.717)">
                <path d="M0,-40.264C-0.696,-40.264 -1.376,-40.195 -2.048,-40.097C-2.657,-36.049 -3.386,-32.01 -4.235,-28.033C-3.346,-28.59 -2.329,-28.933 -1.229,-28.933C2.127,-28.933 4.848,-27.126 4.848,-22.305C4.848,-16.374 -2.447,-12.878 -5.803,-12.878C-6.96,-12.878 -7.49,-13.573 -7.698,-14.621C-9.275,-9.541 -11.124,-4.729 -13.263,-0.314C-12.737,-0.13 -12.163,0 -11.471,0C-3.054,0 15.24,-8.767 15.24,-23.643C15.24,-35.733 8.417,-40.264 0,-40.264" style="fill:rgb(3,4,4);fill-rule:nonzero;"/>
            </g>
        </g>
    </g>
    <g transform="matrix(4.16667,0,0,4.16667,180.007,112.757)">
        <path d="M0,22.821C-1.513,22.821 -2.74,21.594 -2.74,20.081L-2.74,2.74C-2.74,1.226 -1.513,0 0,0C1.513,0 2.74,1.226 2.74,2.74L2.74,20.081C2.74,21.594 1.513,22.821 0,22.821" style="fill:rgb(46,47,49);fill-rule:nonzero;"/>
    </g>
    <g transform="matrix(4.16667,0,0,4.16667,324.237,112.757)">
        <path d="M0,22.821C-1.513,22.821 -2.74,21.594 -2.74,20.081L-2.74,2.74C-2.74,1.226 -1.513,0 0,0C1.513,0 2.74,1.226 2.74,2.74L2.74,20.081C2.74,21.594 1.513,22.821 0,22.821" style="fill:rgb(46,47,49);fill-rule:nonzero;"/>
    </g>
    <g transform="matrix(4.16667,0,0,4.16667,252.047,58.9075)">
        <path d="M0,35.745C-1.513,35.745 -2.74,34.518 -2.74,33.005L-2.74,2.741C-2.74,1.227 -1.513,0 0,0C1.513,0 2.74,1.227 2.74,2.741L2.74,33.005C2.74,34.518 1.513,35.745 0,35.745" style="fill:rgb(46,47,49);fill-rule:nonzero;"/>
    </g>
    <g transform="matrix(4.16667,0,0,4.16667,376.905,456.841)">
        <path d="M0,5.481L-58.975,5.481C-60.488,5.481 -61.716,4.254 -61.716,2.741C-61.716,1.227 -60.488,0 -58.975,0L0,0C1.513,0 2.74,1.227 2.74,2.741C2.74,4.254 1.513,5.481 0,5.481" style="fill:rgb(46,47,49);fill-rule:nonzero;"/>
    </g>
</svg>
