<?xml version="1.0" encoding="UTF-8" standalone="no"?>
<!DOCTYPE svg PUBLIC "-//W3C//DTD SVG 1.1//EN" "http://www.w3.org/Graphics/SVG/1.1/DTD/svg11.dtd">
<svg width="100%" height="100%" viewBox="0 0 580 580" version="1.1" xmlns="http://www.w3.org/2000/svg" xmlns:xlink="http://www.w3.org/1999/xlink" xml:space="preserve" xmlns:serif="http://www.serif.com/" style="fill-rule:evenodd;clip-rule:evenodd;stroke-linejoin:round;stroke-miterlimit:2;">
    <g transform="matrix(2.57377,-3.27671,-3.27671,-2.57377,496.911,414.786)">
        <path d="M-12.026,-5.846C-22.924,-5.846 -31.759,1 -31.759,9.446C-31.759,17.893 -22.924,24.74 -12.027,24.739C-1.129,24.739 7.706,17.893 7.707,9.446C7.706,1 -1.129,-5.847 -12.026,-5.846" style="fill:rgb(180,130,75);fill-rule:nonzero;"/>
    </g>
    <g transform="matrix(4.16667,0,0,4.16667,452.395,494.17)">
        <path d="M0,-30.858C-4.944,-30.858 -10.326,-27.918 -14.044,-23.183C-19.832,-15.816 -20.112,-6.343 -14.669,-2.066C-12.949,-0.714 -10.764,0 -8.35,0C-3.404,0 1.979,-2.94 5.697,-7.675C11.484,-15.044 11.766,-24.516 6.323,-28.792C4.601,-30.144 2.416,-30.858 0,-30.858M-8.35,5.481C-12.003,5.481 -15.359,4.362 -18.055,2.244C-25.875,-3.9 -26.009,-16.824 -18.355,-26.569C-13.55,-32.687 -6.689,-36.339 0,-36.339C3.656,-36.339 7.012,-35.22 9.709,-33.102C17.529,-26.96 17.663,-14.034 10.007,-4.289C5.201,1.829 -1.661,5.481 -8.35,5.481" style="fill:rgb(46,47,49);fill-rule:nonzero;"/>
    </g>
    <g transform="matrix(4.16667,0,0,4.16667,492.855,485.216)">
        <path d="M0,-27.176C0,-27.176 -13.855,-22.638 -13.884,-13.28C-13.907,-5.7 -27.525,0 -27.525,0" style="fill:rgb(180,130,75);fill-rule:nonzero;"/>
    </g>
    <g transform="matrix(4.16667,0,0,4.16667,378.177,359.164)">
        <path d="M0,32.992C-1.07,32.992 -2.087,32.36 -2.528,31.311C-3.113,29.916 -2.457,28.311 -1.062,27.725C2.037,26.421 10.885,21.649 10.899,16.964C10.933,5.756 26.028,0.682 26.671,0.471C28.114,0 29.657,0.784 30.128,2.223C30.599,3.661 29.816,5.208 28.378,5.679C25.045,6.784 16.398,10.962 16.38,16.981C16.351,26.116 2.621,32.125 1.056,32.78C0.71,32.924 0.351,32.992 0,32.992" style="fill:rgb(46,47,49);fill-rule:nonzero;"/>
    </g>
    <g transform="matrix(4.16667,0,0,4.16667,-640.346,-1504.69)">
        <g opacity="0.15">
            <g transform="matrix(1,0,0,1,270.273,483.189)">
                <path d="M0,-34.41C-1.032,-35.221 -2.174,-35.817 -3.378,-36.253C-1.224,-30.561 -2.583,-22.975 -7.47,-16.753C-13.156,-9.514 -21.765,-6.473 -28.308,-8.839C-27.495,-6.691 -26.198,-4.803 -24.378,-3.374C-17.736,1.843 -6.894,-0.875 -0.162,-9.445C6.569,-18.016 6.642,-29.193 0,-34.41" style="fill:rgb(3,4,4);fill-rule:nonzero;"/>
            </g>
        </g>
    </g>
    <g transform="matrix(4.07338,-0.87676,-0.87676,-4.07338,198.044,485.999)">
        <path d="M-2.534,-0.27C-11.114,-0.27 -18.069,5.121 -18.07,11.77C-18.07,18.42 -11.114,23.811 -2.534,23.811C6.047,23.811 13.002,18.421 13.002,11.771C13.003,5.121 6.047,-0.269 -2.534,-0.27" style="fill:rgb(180,130,75);fill-rule:nonzero;"/>
    </g>
    <g transform="matrix(4.16667,0,0,4.16667,184.2,479.771)">
        <path d="M0,-18.958C-1.186,-18.958 -2.394,-18.828 -3.588,-18.571C-7.054,-17.825 -10.064,-16.105 -12.066,-13.727C-13.898,-11.549 -14.635,-9.085 -14.139,-6.789C-13.281,-2.792 -8.808,0 -3.263,0C-2.077,0 -0.869,-0.132 0.326,-0.389C7.224,-1.873 11.957,-7.16 10.878,-12.173C10.018,-16.168 5.545,-18.958 0,-18.958M-3.263,5.481C-11.415,5.481 -18.091,0.91 -19.498,-5.634C-20.357,-9.624 -19.208,-13.752 -16.259,-17.256C-13.479,-20.558 -9.39,-22.929 -4.74,-23.93C-3.169,-24.268 -1.574,-24.439 0,-24.439C8.15,-24.439 14.826,-19.87 16.237,-13.327C17.95,-5.358 11.331,2.849 1.479,4.97C-0.093,5.308 -1.69,5.481 -3.263,5.481" style="fill:rgb(46,47,49);fill-rule:nonzero;"/>
    </g>
    <g transform="matrix(4.16667,0,0,4.16667,241.565,441.774)">
        <path d="M0,-1.794C0,-1.794 -10.675,-6.014 -15.399,-0.36C-19.225,4.22 -30.341,0.823 -30.341,0.823" style="fill:rgb(180,130,75);fill-rule:nonzero;"/>
    </g>
    <g transform="matrix(4.16667,0,0,4.16667,147.96,403.403)">
        <path d="M0,13.982C-4.119,13.982 -7.955,12.872 -8.676,12.653C-10.123,12.21 -10.935,10.681 -10.496,9.235C-10.055,7.788 -8.514,6.976 -7.078,7.411C-3.286,8.558 3.161,9.252 4.963,7.092C10.888,0 22.961,4.665 23.473,4.867C24.879,5.422 25.57,7.015 25.013,8.423C24.458,9.827 22.872,10.514 21.463,9.966C21.375,9.929 12.507,6.61 9.17,10.606C6.978,13.229 3.393,13.982 0,13.982" style="fill:rgb(46,47,49);fill-rule:nonzero;"/>
    </g>
    <g transform="matrix(4.16667,0,0,4.16667,-640.346,-1504.69)">
        <g opacity="0.15">
            <g transform="matrix(1,0,0,1,211.448,472.424)">
                <path d="M0,-8.901C-0.786,-12.555 -3.638,-15.357 -7.473,-16.79C-7.418,-16.596 -7.351,-16.408 -7.308,-16.209C-5.908,-9.708 -11.574,-2.974 -19.962,-1.169C-23.636,-0.378 -27.222,-0.664 -30.211,-1.781C-28.471,4.358 -20.785,7.889 -12.654,6.139C-4.266,4.333 1.399,-2.4 0,-8.901" style="fill:rgb(3,4,4);fill-rule:nonzero;"/>
            </g>
        </g>
    </g>
    <g transform="matrix(-0.324035,-4.15405,-4.15405,0.324035,292.542,232.575)">
        <path d="M-15.716,-16.99C-26.951,-16.991 -36.058,-9.932 -36.058,-1.226C-36.058,7.481 -26.951,14.539 -15.716,14.539C-4.482,14.539 4.625,7.481 4.625,-1.225C4.625,-9.932 -4.482,-16.99 -15.716,-16.99" style="fill:rgb(180,130,75);fill-rule:nonzero;"/>
    </g>
    <g transform="matrix(4.16667,0,0,4.16667,300.159,367.652)">
        <path d="M0,-34.422C-0.248,-34.422 -0.5,-34.412 -0.753,-34.393C-4.087,-34.133 -7.133,-32.151 -9.326,-28.813C-11.664,-25.256 -12.744,-20.647 -12.369,-15.833C-11.618,-6.208 -5.252,1.246 1.986,0.703C9.144,0.143 14.355,-8.183 13.602,-17.858C12.876,-27.146 6.903,-34.422 0,-34.422M1.233,6.213C-8.512,6.213 -16.887,-3.284 -17.832,-15.405C-18.303,-21.426 -16.908,-27.256 -13.907,-31.823C-10.76,-36.609 -6.241,-39.462 -1.178,-39.857C9.031,-40.635 18.08,-30.893 19.065,-18.285C20.053,-5.596 12.583,5.372 2.412,6.166C2.018,6.198 1.624,6.213 1.233,6.213" style="fill:rgb(46,47,49);fill-rule:nonzero;"/>
    </g>
    <g transform="matrix(4.16667,0,0,4.16667,306.211,379.111)">
        <path d="M0,-39.827C0,-39.827 -7.345,-26.715 -0.836,-19.595C4.436,-13.828 -1.918,0 -1.918,0" style="fill:rgb(180,130,75);fill-rule:nonzero;"/>
    </g>
    <g transform="matrix(4.16667,0,0,4.16667,298.219,200.128)">
        <path d="M0,45.696C-0.384,45.696 -0.771,45.616 -1.142,45.446C-2.517,44.815 -3.12,43.189 -2.491,41.814C-1.044,38.649 2.348,28.808 -0.94,25.211C-8.696,16.727 -0.812,2.396 -0.473,1.79C0.266,0.465 1.936,0 3.258,0.738C4.576,1.477 5.047,3.145 4.31,4.465C2.544,7.641 -1.117,16.894 3.104,21.512C9.422,28.421 3.219,42.515 2.491,44.099C2.029,45.104 1.037,45.696 0,45.696" style="fill:rgb(46,47,49);fill-rule:nonzero;"/>
    </g>
    <g transform="matrix(4.16667,0,0,4.16667,-640.346,-1504.69)">
        <g opacity="0.15">
            <g transform="matrix(1,0,0,1,242.054,435.648)">
                <path d="M0,-4.356C-0.63,-12.435 -4.844,-19.104 -10.397,-21.951C-8.725,-19.005 -7.607,-15.498 -7.308,-11.664C-6.434,-0.463 -12.762,9.165 -21.443,9.842C-23.861,10.031 -26.2,9.483 -28.345,8.384C-25.133,14.043 -19.844,17.595 -14.135,17.15C-5.455,16.473 0.874,6.844 0,-4.356" style="fill:rgb(3,4,4);fill-rule:nonzero;"/>
            </g>
        </g>
    </g>
    <g transform="matrix(-2.56583,-3.28293,-3.28293,2.56583,81.0459,273.701)">
        <path d="M-9.408,-19.294C-17.917,-19.294 -24.815,-13.948 -24.815,-7.353C-24.815,-0.759 -17.918,4.588 -9.408,4.588C-0.899,4.588 5.999,-0.758 5.999,-7.353C5.999,-13.947 -0.899,-19.293 -9.408,-19.294" style="fill:rgb(180,130,75);fill-rule:nonzero;"/>
    </g>
    <g transform="matrix(4.16667,0,0,4.16667,115.765,333.445)">
        <path d="M0,-22.908C-1.74,-22.908 -3.313,-22.399 -4.546,-21.434C-8.542,-18.309 -8.294,-11.29 -3.995,-5.788C-1.204,-2.218 2.821,-0 6.508,-0C8.248,-0 9.821,-0.51 11.054,-1.474C12.885,-2.905 13.887,-5.244 13.875,-8.059C13.862,-11.135 12.665,-14.353 10.503,-17.119C7.713,-20.69 3.688,-22.908 0,-22.908M6.508,5.481C1.092,5.481 -4.45,2.53 -8.312,-2.412C-14.474,-10.296 -14.298,-20.766 -7.921,-25.752C-5.714,-27.477 -2.976,-28.389 0,-28.389C5.417,-28.389 10.958,-25.438 14.821,-20.495C17.727,-16.776 19.338,-12.368 19.356,-8.082C19.375,-3.533 17.625,0.348 14.43,2.844C12.223,4.569 9.484,5.481 6.508,5.481" style="fill:rgb(46,47,49);fill-rule:nonzero;"/>
    </g>
    <g transform="matrix(4.16667,0,0,4.16667,96.2362,339.145)">
        <path d="M0,-25.943C0,-25.943 0.853,-14.591 7.941,-12.822C13.684,-11.388 15.462,0 15.462,0" style="fill:rgb(180,130,75);fill-rule:nonzero;"/>
    </g>
    <g transform="matrix(4.16667,0,0,4.16667,160.642,219.17)">
        <path d="M0,31.533C-1.324,31.533 -2.491,30.57 -2.703,29.221C-3.317,25.348 -5.483,19.305 -8.18,18.63C-17.086,16.407 -18.15,3.6 -18.191,3.056C-18.303,1.547 -17.172,0.232 -15.663,0.119C-14.189,0 -12.84,1.134 -12.726,2.641C-12.714,2.771 -11.834,12.07 -6.853,13.313C0.444,15.135 2.501,27.023 2.712,28.372C2.944,29.867 1.923,31.265 0.428,31.499C0.285,31.522 0.141,31.533 0,31.533" style="fill:rgb(46,47,49);fill-rule:nonzero;"/>
    </g>
    <g transform="matrix(4.16667,0,0,4.16667,-640.346,-1504.69)">
        <g opacity="0.15">
            <g transform="matrix(1,0,0,1,194.129,440.97)">
                <path d="M0,-18.624C-1.653,-20.739 -3.628,-22.398 -5.719,-23.553C-2.137,-17.285 -2.628,-10.035 -7.228,-6.439C-10.784,-3.66 -15.869,-3.789 -20.405,-6.296C-19.941,-5.484 -19.417,-4.686 -18.816,-3.918C-13.576,2.787 -5.116,4.929 0.08,0.868C5.276,-3.193 5.24,-11.92 0,-18.624" style="fill:rgb(3,4,4);fill-rule:nonzero;"/>
            </g>
        </g>
    </g>
    <g transform="matrix(3.293,-2.55289,-2.55289,-3.293,225.587,142.426)">
        <path d="M-7.316,-2.504C-15.825,-2.504 -22.723,2.842 -22.723,9.437C-22.723,16.032 -15.825,21.377 -7.316,21.378C1.193,21.377 8.091,16.032 8.092,9.437C8.091,2.842 1.193,-2.503 -7.316,-2.504" style="fill:rgb(180,130,75);fill-rule:nonzero;"/>
    </g>
    <g transform="matrix(4.16667,0,0,4.16667,191.73,174.225)">
        <path d="M0,-21.215C-3.078,-21.215 -6.3,-20.03 -9.076,-17.879C-11.85,-15.728 -13.8,-12.902 -14.567,-9.922C-15.27,-7.196 -14.872,-4.683 -13.449,-2.847C-12.027,-1.011 -9.693,-0 -6.878,-0C-3.8,-0 -0.578,-1.185 2.198,-3.336C7.718,-7.616 9.681,-14.359 6.573,-18.368C5.149,-20.204 2.815,-21.215 0,-21.215M-6.878,5.481C-11.425,5.481 -15.297,3.716 -17.78,0.511C-20.266,-2.693 -21.01,-6.884 -19.875,-11.288C-18.806,-15.439 -16.164,-19.318 -12.433,-22.211C-8.703,-25.103 -4.287,-26.696 0,-26.696C4.548,-26.696 8.419,-24.931 10.904,-21.726C15.864,-15.328 13.465,-5.135 5.556,0.995C1.825,3.887 -2.591,5.481 -6.878,5.481" style="fill:rgb(46,47,49);fill-rule:nonzero;"/>
    </g>
    <g transform="matrix(4.16667,0,0,4.16667,232.206,161.15)">
        <path d="M0,-15.359C0,-15.359 -11.355,-14.551 -13.152,-7.47C-14.609,-1.733 -26.004,0 -26.004,0" style="fill:rgb(180,130,75);fill-rule:nonzero;"/>
    </g>
    <g transform="matrix(4.16667,0,0,4.16667,123.838,85.275)">
        <path d="M0,20.95C-1.329,20.951 -2.496,19.979 -2.703,18.624C-2.933,17.129 -1.905,15.731 -0.412,15.5C3.463,14.903 9.516,12.762 10.2,10.066C12.458,1.168 25.27,0.156 25.814,0.118C27.315,-0.001 28.637,1.146 28.742,2.657C28.849,4.165 27.714,5.475 26.207,5.584C26.062,5.596 16.774,6.443 15.513,11.414C13.663,18.703 1.766,20.714 0.416,20.919C0.277,20.94 0.137,20.95 0,20.95" style="fill:rgb(46,47,49);fill-rule:nonzero;"/>
    </g>
    <g transform="matrix(4.16667,0,0,4.16667,-640.346,-1504.69)">
        <g opacity="0.15">
            <g transform="matrix(1,0,0,1,208.436,403.476)">
                <path d="M0,-20.583C-1.387,-22.372 -3.333,-23.531 -5.554,-24.092C-4.446,-19.151 -6.906,-13.094 -12.168,-9.014C-16.585,-5.59 -21.858,-4.429 -26.107,-5.502C-25.799,-4.129 -25.232,-2.837 -24.353,-1.703C-20.313,3.509 -11.585,3.507 -4.861,-1.706C1.864,-6.92 4.041,-15.371 0,-20.583" style="fill:rgb(3,4,4);fill-rule:nonzero;"/>
            </g>
        </g>
    </g>
    <g transform="matrix(0.998005,-4.04538,-4.04538,-0.998005,477.481,126.1)">
        <path d="M-12.016,-9.412C-20.836,-9.411 -27.986,-3.871 -27.986,2.965C-27.986,9.8 -20.836,15.341 -12.016,15.342C-3.196,15.341 3.954,9.8 3.954,2.965C3.953,-3.87 -3.196,-9.412 -12.016,-9.412" style="fill:rgb(180,130,75);fill-rule:nonzero;"/>
    </g>
    <g transform="matrix(4.16667,0,0,4.16667,459.687,226.12)">
        <path d="M0,-26.097C-4.671,-26.097 -9.331,-21.48 -10.842,-15.357C-11.72,-11.803 -11.486,-8.228 -10.184,-5.293C-8.987,-2.596 -7.024,-0.789 -4.655,-0.204C-4.107,-0.069 -3.541,0 -2.974,0C1.697,0 6.359,-4.617 7.87,-10.74C9.616,-17.822 6.84,-24.62 1.682,-25.893C1.135,-26.028 0.567,-26.097 0,-26.097M-2.974,5.481C-3.982,5.481 -4.99,5.359 -5.968,5.118C-10.02,4.118 -13.295,1.21 -15.193,-3.07C-16.986,-7.112 -17.331,-11.942 -16.162,-16.67C-14.032,-25.308 -7.235,-31.578 0,-31.578C1.01,-31.578 2.018,-31.456 2.996,-31.215C11.088,-29.217 15.661,-19.444 13.19,-9.427C11.06,-0.79 4.262,5.481 -2.974,5.481" style="fill:rgb(46,47,49);fill-rule:nonzero;"/>
    </g>
    <g transform="matrix(4.16667,0,0,4.16667,476.894,231.49)">
        <path d="M0,-29.21C0,-29.21 -8.71,-21.25 -5.616,-14.338C-3.11,-8.738 -11.258,0 -11.258,0" style="fill:rgb(180,130,75);fill-rule:nonzero;"/>
    </g>
    <g transform="matrix(4.16667,0,0,4.16667,429.997,97.1092)">
        <path d="M0,34.991C-0.669,34.991 -1.34,34.748 -1.868,34.257C-2.974,33.227 -3.037,31.493 -2.009,30.384C0.243,27.96 4.464,21.994 3.138,19.033C-0.719,10.414 8.992,1.398 9.408,1.018C10.523,0 12.259,0.074 13.279,1.193C14.3,2.309 14.221,4.04 13.106,5.062C12.969,5.192 5.945,11.887 8.141,16.794C11.299,23.848 2.963,33.09 2.002,34.12C1.463,34.698 0.731,34.991 0,34.991" style="fill:rgb(46,47,49);fill-rule:nonzero;"/>
    </g>
    <g transform="matrix(4.16667,0,0,4.16667,-640.346,-1504.69)">
        <g opacity="0.15">
            <g transform="matrix(1,0,0,1,266.723,419.489)">
                <path d="M0,-32.528C1.213,-29.323 1.482,-25.44 0.507,-21.485C-1.606,-12.922 -8.698,-7.308 -15.335,-8.945C-15.464,-8.977 -15.584,-9.028 -15.711,-9.064C-14.298,-5.33 -11.599,-2.519 -8.027,-1.637C-1.391,0 5.702,-5.614 7.814,-14.178C9.886,-22.574 6.393,-30.672 0,-32.528" style="fill:rgb(3,4,4);fill-rule:nonzero;"/>
            </g>
        </g>
    </g>
</svg>
