<?xml version="1.0" encoding="UTF-8" standalone="no"?>
<!DOCTYPE svg PUBLIC "-//W3C//DTD SVG 1.1//EN" "http://www.w3.org/Graphics/SVG/1.1/DTD/svg11.dtd">
<svg width="100%" height="100%" viewBox="0 0 580 580" version="1.1" xmlns="http://www.w3.org/2000/svg" xmlns:xlink="http://www.w3.org/1999/xlink" xml:space="preserve" xmlns:serif="http://www.serif.com/" style="fill-rule:evenodd;clip-rule:evenodd;stroke-linejoin:round;stroke-miterlimit:2;">
    <g transform="matrix(-4.16667,0,0,4.16667,169.414,118.304)">
        <path d="M-48.118,45.164L-0.001,45.164L10.871,0L-58.989,0L-48.118,45.164Z" style="fill:white;fill-rule:nonzero;"/>
    </g>
    <g transform="matrix(4.16667,0,0,4.16667,178.412,129.725)">
        <path d="M0,39.682L43.8,39.682L53.352,0L-9.55,0L0,39.682ZM45.958,45.163L-2.159,45.163C-3.425,45.163 -4.526,44.296 -4.822,43.063L-15.693,-2.1C-15.889,-2.915 -15.702,-3.777 -15.183,-4.437C-14.662,-5.095 -13.87,-5.481 -13.029,-5.481L56.831,-5.481C57.671,-5.481 58.463,-5.095 58.984,-4.437C59.503,-3.777 59.691,-2.915 59.494,-2.1L48.622,43.063C48.326,44.296 47.225,45.163 45.958,45.163" style="fill:rgb(46,47,49);fill-rule:nonzero;"/>
    </g>
    <g transform="matrix(4.16667,0,0,4.16667,-1523.24,-2359.04)">
        <g opacity="0.15">
            <g transform="matrix(-0.234017,0.972233,0.972233,0.234017,475.576,621.496)">
                <path d="M-20.772,-28.798L25.682,-28.798L22.689,-16.366L-23.765,-16.366L-20.772,-28.798Z" style="fill:rgb(3,4,4);fill-rule:nonzero;"/>
            </g>
        </g>
    </g>
    <g transform="matrix(4.16667,0,0,4.16667,369.905,557.76)">
        <path d="M0,-50.697L-48.117,-50.697L-59.047,-4.5C-59.375,-2.116 -57.436,0 -54.923,0L6.806,0C9.319,0 11.257,-2.116 10.93,-4.5L0,-50.697Z" style="fill:white;fill-rule:nonzero;"/>
    </g>
    <g transform="matrix(4.16667,0,0,4.16667,135.154,363.328)">
        <path d="M0,42.63C-0.021,42.992 0.141,43.263 0.289,43.431C0.56,43.745 0.972,43.923 1.417,43.923L63.147,43.923C63.591,43.923 64.003,43.745 64.274,43.431C64.422,43.263 64.585,42.992 64.563,42.63L54.173,-1.293L10.391,-1.293L0,42.63ZM63.147,49.404L1.417,49.404C-0.612,49.404 -2.53,48.541 -3.843,47.033C-5.106,45.584 -5.681,43.674 -5.422,41.79C-5.409,41.704 -5.393,41.618 -5.374,41.533L5.556,-4.665C5.848,-5.901 6.953,-6.774 8.223,-6.774L56.34,-6.774C57.61,-6.774 58.715,-5.901 59.007,-4.665L69.937,41.533C69.956,41.618 69.973,41.704 69.985,41.79C70.244,43.674 69.669,45.584 68.406,47.033C67.093,48.541 65.175,49.404 63.147,49.404" style="fill:rgb(46,47,49);fill-rule:nonzero;"/>
    </g>
    <g transform="matrix(4.16667,0,0,4.16667,-1523.24,-2359.04)">
        <g opacity="0.15">
            <g transform="matrix(1,0,0,1,465.285,653.834)">
                <path d="M0,41.697L-10.93,-4.5L-23.718,-4.5L-12.788,41.697C-12.461,44.081 -14.4,46.197 -16.912,46.197L-4.124,46.197C-1.611,46.197 0.328,44.081 0,41.697" style="fill:rgb(3,4,4);fill-rule:nonzero;"/>
            </g>
        </g>
    </g>
    <g transform="matrix(4.16667,0,0,4.16667,277.747,22.2402)">
        <path d="M0,12.843L-4.15,12.843C-5.53,12.843 -6.659,11.714 -6.659,10.334L-6.659,2.51C-6.659,1.129 -5.53,0 -4.15,0L0,0C1.38,0 2.509,1.129 2.509,2.51L2.509,10.334C2.509,11.714 1.38,12.843 0,12.843" style="fill:white;fill-rule:nonzero;"/>
    </g>
    <g transform="matrix(4.16667,0,0,4.16667,269.103,64.3377)">
        <path d="M0,-7.363C-1.017,-7.363 -1.845,-6.535 -1.845,-5.518L-1.845,-1.845C-1.845,-0.846 -0.999,0 0,0C0.999,0 1.843,-0.846 1.843,-1.845L1.843,-5.518C1.843,-6.535 1.017,-7.363 0,-7.363M0,5.481C-4.039,5.481 -7.326,2.194 -7.326,-1.845L-7.326,-5.518C-7.326,-9.557 -4.039,-12.844 0,-12.844C4.039,-12.844 7.324,-9.557 7.324,-5.518L7.324,-1.845C7.324,2.194 4.039,5.481 0,5.481" style="fill:rgb(46,47,49);fill-rule:nonzero;"/>
    </g>
    <g transform="matrix(-3.87584,1.52936,1.52936,3.87584,295.05,105.941)">
        <path d="M5.85,-12.084L38.71,-12.084L-25.735,13.345L-1.21,-9.326C0.648,-11.202 3.213,-12.205 5.85,-12.084" style="fill:white;fill-rule:nonzero;"/>
    </g>
    <g transform="matrix(4.16667,0,0,4.16667,186.566,74.634)">
        <path d="M0,7.741L40.242,7.741L22.747,0.949C20.822,0.107 18.974,0.157 17.279,0.92L0,7.741ZM54.874,13.222L-14.407,13.222C-15.723,13.222 -16.853,12.287 -17.099,10.993C-17.345,9.7 -16.637,8.415 -15.413,7.932L15.152,-4.13C18.032,-5.422 21.732,-5.481 24.842,-4.114L55.866,7.927C57.095,8.405 57.81,9.689 57.568,10.986C57.325,12.282 56.192,13.222 54.874,13.222" style="fill:rgb(46,47,49);fill-rule:nonzero;"/>
    </g>
    <g transform="matrix(4.16667,0,0,4.16667,126.537,306.487)">
        <path d="M0,-45.164L-17.176,-45.164L10.291,0L0,-45.164Z" style="fill:white;fill-rule:nonzero;"/>
    </g>
    <g transform="matrix(4.16667,0,0,4.16667,75.2829,295.066)">
        <path d="M0,-39.682L16.176,-13.085L10.116,-39.682L0,-39.682ZM22.594,5.481C21.661,5.481 20.762,5.003 20.251,4.164L-7.215,-40.999C-7.731,-41.844 -7.748,-42.902 -7.263,-43.766C-6.778,-44.629 -5.864,-45.163 -4.874,-45.163L12.301,-45.163C13.581,-45.163 14.689,-44.278 14.974,-43.031L25.265,2.132C25.563,3.442 24.867,4.774 23.621,5.279C23.286,5.417 22.936,5.481 22.594,5.481" style="fill:rgb(46,47,49);fill-rule:nonzero;"/>
    </g>
    <g transform="matrix(-4.16667,0,0,4.16667,2064.98,-567.124)">
        <rect x="409.275" y="209.666" width="42.624" height="9.609" style="fill:rgb(81,58,43);"/>
    </g>
    <g transform="matrix(4.16667,0,0,4.16667,-1523.24,-567.12)">
        <path d="M412.015,216.534L449.158,216.534L449.158,212.406L412.015,212.406L412.015,216.534ZM451.899,222.015L409.275,222.015C407.762,222.015 406.535,220.787 406.535,219.274L406.535,209.665C406.535,208.152 407.762,206.925 409.275,206.925L451.899,206.925C453.412,206.925 454.639,208.152 454.639,209.665L454.639,219.274C454.639,220.787 453.412,222.015 451.899,222.015" style="fill:rgb(46,47,49);fill-rule:nonzero;"/>
    </g>
    <g transform="matrix(4.16667,0,0,4.16667,425.112,124.013)">
        <path d="M0,48.361C13.243,48.361 23.978,37.626 23.978,24.383L23.978,11.476C23.978,5.138 18.84,0 12.502,0L-2.378,0L-4.774,8.397L10.268,8.397C12.939,8.397 15.103,10.562 15.103,13.232L15.103,24.123C15.103,32.464 8.341,39.226 0,39.226L-0.868,39.226C-3.39,39.226 -5.435,41.271 -5.435,43.794C-5.435,46.316 -3.39,48.361 -0.868,48.361L0,48.361Z" style="fill:rgb(81,58,43);fill-rule:nonzero;"/>
    </g>
    <g transform="matrix(4.16667,0,0,4.16667,421.495,150.66)">
        <path d="M0,35.571C-1.008,35.571 -1.827,36.39 -1.827,37.398C-1.827,38.406 -1.008,39.225 0,39.225L0.869,39.225C12.58,39.225 22.107,29.698 22.107,17.987L22.107,5.081C22.107,0.264 18.187,-3.654 13.37,-3.654L0.558,-3.654L-0.273,-0.739L11.136,-0.739C15.313,-0.739 18.712,2.66 18.712,6.836L18.712,17.728C18.712,27.568 10.708,35.571 0.869,35.571L0,35.571ZM0.869,44.706L0,44.706C-4.03,44.706 -7.308,41.428 -7.308,37.398C-7.308,33.368 -4.03,30.09 0,30.09L0.869,30.09C7.686,30.09 13.231,24.545 13.231,17.728L13.231,6.836C13.231,5.682 12.291,4.742 11.136,4.742L-3.905,4.742C-4.765,4.742 -5.575,4.339 -6.093,3.652C-6.61,2.965 -6.776,2.076 -6.541,1.248L-4.144,-7.148C-3.809,-8.323 -2.733,-9.135 -1.509,-9.135L13.37,-9.135C21.209,-9.135 27.588,-2.759 27.588,5.081L27.588,17.987C27.588,32.72 15.602,44.706 0.869,44.706" style="fill:rgb(46,47,49);fill-rule:nonzero;"/>
    </g>
    <g transform="matrix(0.604548,4.12258,4.12258,-0.604548,296.881,185.091)">
        <path d="M-19.512,-22.582L26.135,-22.582" style="fill:none;fill-rule:nonzero;"/>
    </g>
    <g transform="matrix(4.16667,0,0,4.16667,219.572,106.124)">
        <path d="M0,50.827C-1.338,50.827 -2.508,49.848 -2.708,48.484L-9.331,3.322C-9.55,1.825 -8.514,0.431 -7.017,0.212C-5.504,0 -4.127,1.029 -3.907,2.526L2.715,47.689C2.935,49.186 1.898,50.579 0.401,50.798C0.266,50.818 0.132,50.827 0,50.827" style="fill:rgb(46,47,49);fill-rule:nonzero;"/>
    </g>
    <g transform="matrix(-0.728537,4.10248,4.10248,0.728537,301.54,489.076)">
        <path d="M-30.247,-25.349L21.244,-25.349" style="fill:none;fill-rule:nonzero;"/>
    </g>
    <g transform="matrix(4.16667,0,0,4.16667,182.084,334.204)">
        <path d="M0,56.394C-0.159,56.394 -0.321,56.38 -0.483,56.351C-1.973,56.087 -2.967,54.665 -2.701,53.174L6.303,2.477C6.567,0.987 7.987,0 9.481,0.259C10.97,0.523 11.964,1.945 11.698,3.436L2.694,54.134C2.458,55.461 1.302,56.394 0,56.394" style="fill:rgb(46,47,49);fill-rule:nonzero;"/>
    </g>
    <g transform="matrix(-0.604548,4.12258,4.12258,0.604548,425.969,239.699)">
        <path d="M-26.135,-22.582L19.512,-22.582" style="fill:none;fill-rule:nonzero;"/>
    </g>
    <g transform="matrix(4.16667,0,0,4.16667,321.095,106.115)">
        <path d="M0,50.829C-0.132,50.829 -0.266,50.82 -0.401,50.8C-1.898,50.581 -2.935,49.188 -2.715,47.691L3.907,2.528C4.127,1.031 5.511,0 7.017,0.214C8.514,0.433 9.55,1.827 9.331,3.324L2.708,48.486C2.508,49.85 1.338,50.829 0,50.829" style="fill:rgb(46,47,49);fill-rule:nonzero;"/>
    </g>
    <g transform="matrix(0.728537,4.10248,4.10248,-0.728537,440.548,415.207)">
        <path d="M-21.244,-25.349L30.247,-25.349" style="fill:none;fill-rule:nonzero;"/>
    </g>
    <g transform="matrix(4.16667,0,0,4.16667,358.576,334.2)">
        <path d="M0,56.395C-1.302,56.395 -2.458,55.462 -2.694,54.135L-11.697,3.437C-11.962,1.946 -10.969,0.524 -9.479,0.26C-7.989,0 -6.565,0.988 -6.301,2.478L2.701,53.175C2.967,54.666 1.973,56.088 0.483,56.352C0.321,56.381 0.159,56.395 0,56.395" style="fill:rgb(46,47,49);fill-rule:nonzero;"/>
    </g>
</svg>
